<svg width="32" height="32" viewBox="0 0 32 32" fill="none" xmlns="http://www.w3.org/2000/svg">
<path d="M15.9998 2.66675C14.2489 2.66675 12.5151 3.01162 10.8974 3.68169C9.27972 4.35175 7.80986 5.33388 6.57175 6.57199C4.07126 9.07248 2.6665 12.4639 2.6665 16.0001C2.6665 21.8934 6.49317 26.8934 11.7865 28.6667C12.4532 28.7734 12.6665 28.3601 12.6665 28.0001V25.7467C8.97317 26.5467 8.1865 23.9601 8.1865 23.9601C7.57317 22.4134 6.7065 22.0001 6.7065 22.0001C5.49317 21.1734 6.79984 21.2001 6.79984 21.2001C8.13317 21.2934 8.83984 22.5734 8.83984 22.5734C9.99984 24.6001 11.9598 24.0001 12.7198 23.6801C12.8398 22.8134 13.1865 22.2267 13.5598 21.8934C10.5998 21.5601 7.49317 20.4134 7.49317 15.3334C7.49317 13.8534 7.99984 12.6667 8.8665 11.7201C8.73317 11.3867 8.2665 10.0001 8.99984 8.20008C8.99984 8.20008 10.1198 7.84008 12.6665 9.56008C13.7198 9.26675 14.8665 9.12008 15.9998 9.12008C17.1332 9.12008 18.2798 9.26675 19.3332 9.56008C21.8798 7.84008 22.9998 8.20008 22.9998 8.20008C23.7332 10.0001 23.2665 11.3867 23.1332 11.7201C23.9998 12.6667 24.5065 13.8534 24.5065 15.3334C24.5065 20.4267 21.3865 21.5467 18.4132 21.8801C18.8932 22.2934 19.3332 23.1067 19.3332 24.3467V28.0001C19.3332 28.3601 19.5465 28.7867 20.2265 28.6667C25.5198 26.8801 29.3332 21.8934 29.3332 16.0001C29.3332 14.2491 28.9883 12.5153 28.3182 10.8976C27.6482 9.27996 26.666 7.81011 25.4279 6.57199C24.1898 5.33388 22.72 4.35175 21.1023 3.68169C19.4846 3.01162 17.7508 2.66675 15.9998 2.66675Z" fill="black"/>
</svg>
